<?xml version="1.0" encoding="UTF-8" standalone="no"?><svg xmlns="http://www.w3.org/2000/svg" xmlns:xlink="http://www.w3.org/1999/xlink" contentStyleType="text/css" height="207px" preserveAspectRatio="none" style="width:344px;height:207px;background:#FFFFFF;" version="1.1" viewBox="0 0 344 207" width="344px" zoomAndPan="magnify"><defs/><g><rect height="26.2969" id="_title" style="stroke:#00000000;stroke-width:1.0;fill:none;" width="110" x="110.25" y="5"/><text fill="#000000" font-family="sans-serif" font-size="14" font-weight="bold" lengthAdjust="spacing" textLength="100" x="115.25" y="22.9951">Aggregation</text><!--MD5=[db25027423b3b96a5b12184dc6d389a4]
class Computer--><g id="elem_Computer"><rect codeLine="3" fill="#F1F1F1" height="48" id="Computer" rx="2.5" ry="2.5" style="stroke:#181818;stroke-width:0.5;" width="105" x="129" y="44.2969"/><ellipse cx="144" cy="60.2969" fill="#ADD1B2" rx="11" ry="11" style="stroke:#181818;stroke-width:1.0;"/><path d="M146.3438,55.9688 C145.4063,55.5313 144.8125,55.3906 143.9375,55.3906 C141.3125,55.3906 139.3125,57.4688 139.3125,60.1875 L139.3125,61.3125 C139.3125,63.8906 141.4219,65.7813 144.3125,65.7813 C145.5313,65.7813 146.6875,65.4844 147.4375,64.9375 C148.0156,64.5313 148.3438,64.0781 148.3438,63.6875 C148.3438,63.2344 147.9531,62.8438 147.4844,62.8438 C147.2656,62.8438 147.0625,62.9219 146.875,63.1094 C146.4219,63.5938 146.4219,63.5938 146.2344,63.6875 C145.8125,63.9531 145.125,64.0781 144.3594,64.0781 C142.3125,64.0781 141.0156,62.9844 141.0156,61.2813 L141.0156,60.1875 C141.0156,58.4063 142.2656,57.0938 144,57.0938 C144.5781,57.0938 145.1875,57.25 145.6563,57.5 C146.1406,57.7813 146.3125,58 146.4063,58.4063 C146.4688,58.8125 146.5,58.9375 146.6406,59.0625 C146.7813,59.2031 147.0156,59.3125 147.2344,59.3125 C147.5,59.3125 147.7656,59.1719 147.9375,58.9531 C148.0469,58.7969 148.0781,58.6094 148.0781,58.1875 L148.0781,56.7656 C148.0781,56.3281 148.0625,56.2031 147.9688,56.0469 C147.8125,55.7813 147.5313,55.6406 147.2344,55.6406 C146.9375,55.6406 146.7344,55.7344 146.5156,56.0469 L146.3438,55.9688 Z " fill="#000000"/><text fill="#000000" font-family="sans-serif" font-size="14" lengthAdjust="spacing" textLength="73" x="158" y="65.1436">Computer</text><line style="stroke:#181818;stroke-width:0.5;" x1="130" x2="233" y1="76.2969" y2="76.2969"/><line style="stroke:#181818;stroke-width:0.5;" x1="130" x2="233" y1="84.2969" y2="84.2969"/></g><!--MD5=[e17bd019cf9874112af63a52ea874b62]
class Keyboard--><g id="elem_Keyboard"><rect codeLine="4" fill="#F1F1F1" height="48" id="Keyboard" rx="2.5" ry="2.5" style="stroke:#181818;stroke-width:0.5;" width="101" x="7" y="152.2969"/><ellipse cx="22" cy="168.2969" fill="#ADD1B2" rx="11" ry="11" style="stroke:#181818;stroke-width:1.0;"/><path d="M24.3438,163.9688 C23.4063,163.5313 22.8125,163.3906 21.9375,163.3906 C19.3125,163.3906 17.3125,165.4688 17.3125,168.1875 L17.3125,169.3125 C17.3125,171.8906 19.4219,173.7813 22.3125,173.7813 C23.5313,173.7813 24.6875,173.4844 25.4375,172.9375 C26.0156,172.5313 26.3438,172.0781 26.3438,171.6875 C26.3438,171.2344 25.9531,170.8438 25.4844,170.8438 C25.2656,170.8438 25.0625,170.9219 24.875,171.1094 C24.4219,171.5938 24.4219,171.5938 24.2344,171.6875 C23.8125,171.9531 23.125,172.0781 22.3594,172.0781 C20.3125,172.0781 19.0156,170.9844 19.0156,169.2813 L19.0156,168.1875 C19.0156,166.4063 20.2656,165.0938 22,165.0938 C22.5781,165.0938 23.1875,165.25 23.6563,165.5 C24.1406,165.7813 24.3125,166 24.4063,166.4063 C24.4688,166.8125 24.5,166.9375 24.6406,167.0625 C24.7813,167.2031 25.0156,167.3125 25.2344,167.3125 C25.5,167.3125 25.7656,167.1719 25.9375,166.9531 C26.0469,166.7969 26.0781,166.6094 26.0781,166.1875 L26.0781,164.7656 C26.0781,164.3281 26.0625,164.2031 25.9688,164.0469 C25.8125,163.7813 25.5313,163.6406 25.2344,163.6406 C24.9375,163.6406 24.7344,163.7344 24.5156,164.0469 L24.3438,163.9688 Z " fill="#000000"/><text fill="#000000" font-family="sans-serif" font-size="14" lengthAdjust="spacing" textLength="69" x="36" y="173.1436">Keyboard</text><line style="stroke:#181818;stroke-width:0.5;" x1="8" x2="107" y1="184.2969" y2="184.2969"/><line style="stroke:#181818;stroke-width:0.5;" x1="8" x2="107" y1="192.2969" y2="192.2969"/></g><!--MD5=[9d20eee4aed475d35a2e03a568297074]
class Mouse--><g id="elem_Mouse"><rect codeLine="5" fill="#F1F1F1" height="48" id="Mouse" rx="2.5" ry="2.5" style="stroke:#181818;stroke-width:0.5;" width="77" x="143" y="152.2969"/><ellipse cx="158" cy="168.2969" fill="#ADD1B2" rx="11" ry="11" style="stroke:#181818;stroke-width:1.0;"/><path d="M160.3438,163.9688 C159.4063,163.5313 158.8125,163.3906 157.9375,163.3906 C155.3125,163.3906 153.3125,165.4688 153.3125,168.1875 L153.3125,169.3125 C153.3125,171.8906 155.4219,173.7813 158.3125,173.7813 C159.5313,173.7813 160.6875,173.4844 161.4375,172.9375 C162.0156,172.5313 162.3438,172.0781 162.3438,171.6875 C162.3438,171.2344 161.9531,170.8438 161.4844,170.8438 C161.2656,170.8438 161.0625,170.9219 160.875,171.1094 C160.4219,171.5938 160.4219,171.5938 160.2344,171.6875 C159.8125,171.9531 159.125,172.0781 158.3594,172.0781 C156.3125,172.0781 155.0156,170.9844 155.0156,169.2813 L155.0156,168.1875 C155.0156,166.4063 156.2656,165.0938 158,165.0938 C158.5781,165.0938 159.1875,165.25 159.6563,165.5 C160.1406,165.7813 160.3125,166 160.4063,166.4063 C160.4688,166.8125 160.5,166.9375 160.6406,167.0625 C160.7813,167.2031 161.0156,167.3125 161.2344,167.3125 C161.5,167.3125 161.7656,167.1719 161.9375,166.9531 C162.0469,166.7969 162.0781,166.6094 162.0781,166.1875 L162.0781,164.7656 C162.0781,164.3281 162.0625,164.2031 161.9688,164.0469 C161.8125,163.7813 161.5313,163.6406 161.2344,163.6406 C160.9375,163.6406 160.7344,163.7344 160.5156,164.0469 L160.3438,163.9688 Z " fill="#000000"/><text fill="#000000" font-family="sans-serif" font-size="14" lengthAdjust="spacing" textLength="45" x="172" y="173.1436">Mouse</text><line style="stroke:#181818;stroke-width:0.5;" x1="144" x2="219" y1="184.2969" y2="184.2969"/><line style="stroke:#181818;stroke-width:0.5;" x1="144" x2="219" y1="192.2969" y2="192.2969"/></g><!--MD5=[463c45b1df3dbfe1c2134e01e0a41cde]
class Screen--><g id="elem_Screen"><rect codeLine="6" fill="#F1F1F1" height="48" id="Screen" rx="2.5" ry="2.5" style="stroke:#181818;stroke-width:0.5;" width="82" x="255.5" y="152.2969"/><ellipse cx="270.5" cy="168.2969" fill="#ADD1B2" rx="11" ry="11" style="stroke:#181818;stroke-width:1.0;"/><path d="M272.8438,163.9688 C271.9063,163.5313 271.3125,163.3906 270.4375,163.3906 C267.8125,163.3906 265.8125,165.4688 265.8125,168.1875 L265.8125,169.3125 C265.8125,171.8906 267.9219,173.7813 270.8125,173.7813 C272.0313,173.7813 273.1875,173.4844 273.9375,172.9375 C274.5156,172.5313 274.8438,172.0781 274.8438,171.6875 C274.8438,171.2344 274.4531,170.8438 273.9844,170.8438 C273.7656,170.8438 273.5625,170.9219 273.375,171.1094 C272.9219,171.5938 272.9219,171.5938 272.7344,171.6875 C272.3125,171.9531 271.625,172.0781 270.8594,172.0781 C268.8125,172.0781 267.5156,170.9844 267.5156,169.2813 L267.5156,168.1875 C267.5156,166.4063 268.7656,165.0938 270.5,165.0938 C271.0781,165.0938 271.6875,165.25 272.1563,165.5 C272.6406,165.7813 272.8125,166 272.9063,166.4063 C272.9688,166.8125 273,166.9375 273.1406,167.0625 C273.2813,167.2031 273.5156,167.3125 273.7344,167.3125 C274,167.3125 274.2656,167.1719 274.4375,166.9531 C274.5469,166.7969 274.5781,166.6094 274.5781,166.1875 L274.5781,164.7656 C274.5781,164.3281 274.5625,164.2031 274.4688,164.0469 C274.3125,163.7813 274.0313,163.6406 273.7344,163.6406 C273.4375,163.6406 273.2344,163.7344 273.0156,164.0469 L272.8438,163.9688 Z " fill="#000000"/><text fill="#000000" font-family="sans-serif" font-size="14" lengthAdjust="spacing" textLength="50" x="284.5" y="173.1436">Screen</text><line style="stroke:#181818;stroke-width:0.5;" x1="256.5" x2="336.5" y1="184.2969" y2="184.2969"/><line style="stroke:#181818;stroke-width:0.5;" x1="256.5" x2="336.5" y1="192.2969" y2="192.2969"/></g><!--MD5=[ce0d5eb12e8f17343d27652f80b7f7c6]
reverse link Computer to Keyboard--><g id="link_Computer_Keyboard"><path codeLine="8" d="M144.668,100.7822 C125.46,117.2019 102.3704,136.9399 84.7818,151.9753 " fill="none" id="Computer-backto-Keyboard" style="stroke:#181818;stroke-width:1.0;"/><polygon fill="none" points="154.594,92.2969,147.4341,93.155,145.4725,100.0942,152.6323,99.236,154.594,92.2969" style="stroke:#181818;stroke-width:1.0;"/></g><!--MD5=[44551523b08ce9e1047c80bb533641d9]
reverse link Computer to Mouse--><g id="link_Computer_Mouse"><path codeLine="9" d="M181.5,105.6352 C181.5,120.9782 181.5,138.3949 181.5,151.9753 " fill="none" id="Computer-backto-Mouse" style="stroke:#181818;stroke-width:1.0;"/><polygon fill="none" points="181.5,92.2969,177.5,98.2969,181.5,104.2969,185.5,98.2969,181.5,92.2969" style="stroke:#181818;stroke-width:1.0;"/></g><!--MD5=[0724ca89f83014015dcd2c96b2e93a65]
reverse link Computer to Screen--><g id="link_Computer_Screen"><path codeLine="10" d="M216.399,101.4651 C234.064,117.7468 255.112,137.1478 271.198,151.9753 " fill="none" id="Computer-backto-Screen" style="stroke:#181818;stroke-width:1.0;"/><polygon fill="none" points="206.453,92.2969,208.1533,99.3047,215.276,100.4305,213.5757,93.4227,206.453,92.2969" style="stroke:#181818;stroke-width:1.0;"/></g><!--MD5=[0a16e864276a1f3a87d339fd87faca92]
@startuml
title Aggregation

class Computer
class Keyboard
class Mouse
class Screen

Computer o- - Keyboard
Computer o- - Mouse
Computer o- - Screen
@enduml

PlantUML version 1.2022.7beta2(Unknown compile time)
(GPL source distribution)
Java Runtime: Java(TM) SE Runtime Environment
JVM: Java HotSpot(TM) 64-Bit Server VM
Default Encoding: UTF-8
Language: en
Country: US
--></g></svg>