<?xml version="1.0" encoding="UTF-8" standalone="no"?><svg xmlns="http://www.w3.org/2000/svg" xmlns:xlink="http://www.w3.org/1999/xlink" contentStyleType="text/css" height="207px" preserveAspectRatio="none" style="width:313px;height:207px;background:#FFFFFF;" version="1.1" viewBox="0 0 313 207" width="313px" zoomAndPan="magnify"><defs/><g><rect height="26.2969" id="_title" style="stroke:#00000000;stroke-width:1.0;fill:none;" width="112" x="93.5" y="5"/><text fill="#000000" font-family="sans-serif" font-size="14" font-weight="bold" lengthAdjust="spacing" textLength="102" x="98.5" y="22.9951">Composition</text><!--MD5=[02e4b9b7573f1156f41e60aa5b4e25a4]
class Company--><g id="elem_Company"><rect codeLine="3" fill="#F1F1F1" height="48" id="Company" rx="2.5" ry="2.5" style="stroke:#181818;stroke-width:0.5;" width="100" x="106" y="44.2969"/><ellipse cx="121" cy="60.2969" fill="#ADD1B2" rx="11" ry="11" style="stroke:#181818;stroke-width:1.0;"/><path d="M123.3438,55.9688 C122.4063,55.5313 121.8125,55.3906 120.9375,55.3906 C118.3125,55.3906 116.3125,57.4688 116.3125,60.1875 L116.3125,61.3125 C116.3125,63.8906 118.4219,65.7813 121.3125,65.7813 C122.5313,65.7813 123.6875,65.4844 124.4375,64.9375 C125.0156,64.5313 125.3438,64.0781 125.3438,63.6875 C125.3438,63.2344 124.9531,62.8438 124.4844,62.8438 C124.2656,62.8438 124.0625,62.9219 123.875,63.1094 C123.4219,63.5938 123.4219,63.5938 123.2344,63.6875 C122.8125,63.9531 122.125,64.0781 121.3594,64.0781 C119.3125,64.0781 118.0156,62.9844 118.0156,61.2813 L118.0156,60.1875 C118.0156,58.4063 119.2656,57.0938 121,57.0938 C121.5781,57.0938 122.1875,57.25 122.6563,57.5 C123.1406,57.7813 123.3125,58 123.4063,58.4063 C123.4688,58.8125 123.5,58.9375 123.6406,59.0625 C123.7813,59.2031 124.0156,59.3125 124.2344,59.3125 C124.5,59.3125 124.7656,59.1719 124.9375,58.9531 C125.0469,58.7969 125.0781,58.6094 125.0781,58.1875 L125.0781,56.7656 C125.0781,56.3281 125.0625,56.2031 124.9688,56.0469 C124.8125,55.7813 124.5313,55.6406 124.2344,55.6406 C123.9375,55.6406 123.7344,55.7344 123.5156,56.0469 L123.3438,55.9688 Z " fill="#000000"/><text fill="#000000" font-family="sans-serif" font-size="14" lengthAdjust="spacing" textLength="68" x="135" y="65.1436">Company</text><line style="stroke:#181818;stroke-width:0.5;" x1="107" x2="205" y1="76.2969" y2="76.2969"/><line style="stroke:#181818;stroke-width:0.5;" x1="107" x2="205" y1="84.2969" y2="84.2969"/></g><!--MD5=[d0535214d1b914bba44a90f9876bdf15]
class DepartmentA--><g id="elem_DepartmentA"><rect codeLine="4" fill="#F1F1F1" height="48" id="DepartmentA" rx="2.5" ry="2.5" style="stroke:#181818;stroke-width:0.5;" width="132" x="7" y="152.2969"/><ellipse cx="22" cy="168.2969" fill="#ADD1B2" rx="11" ry="11" style="stroke:#181818;stroke-width:1.0;"/><path d="M24.3438,163.9688 C23.4063,163.5313 22.8125,163.3906 21.9375,163.3906 C19.3125,163.3906 17.3125,165.4688 17.3125,168.1875 L17.3125,169.3125 C17.3125,171.8906 19.4219,173.7813 22.3125,173.7813 C23.5313,173.7813 24.6875,173.4844 25.4375,172.9375 C26.0156,172.5313 26.3438,172.0781 26.3438,171.6875 C26.3438,171.2344 25.9531,170.8438 25.4844,170.8438 C25.2656,170.8438 25.0625,170.9219 24.875,171.1094 C24.4219,171.5938 24.4219,171.5938 24.2344,171.6875 C23.8125,171.9531 23.125,172.0781 22.3594,172.0781 C20.3125,172.0781 19.0156,170.9844 19.0156,169.2813 L19.0156,168.1875 C19.0156,166.4063 20.2656,165.0938 22,165.0938 C22.5781,165.0938 23.1875,165.25 23.6563,165.5 C24.1406,165.7813 24.3125,166 24.4063,166.4063 C24.4688,166.8125 24.5,166.9375 24.6406,167.0625 C24.7813,167.2031 25.0156,167.3125 25.2344,167.3125 C25.5,167.3125 25.7656,167.1719 25.9375,166.9531 C26.0469,166.7969 26.0781,166.6094 26.0781,166.1875 L26.0781,164.7656 C26.0781,164.3281 26.0625,164.2031 25.9688,164.0469 C25.8125,163.7813 25.5313,163.6406 25.2344,163.6406 C24.9375,163.6406 24.7344,163.7344 24.5156,164.0469 L24.3438,163.9688 Z " fill="#000000"/><text fill="#000000" font-family="sans-serif" font-size="14" lengthAdjust="spacing" textLength="100" x="36" y="173.1436">DepartmentA</text><line style="stroke:#181818;stroke-width:0.5;" x1="8" x2="138" y1="184.2969" y2="184.2969"/><line style="stroke:#181818;stroke-width:0.5;" x1="8" x2="138" y1="192.2969" y2="192.2969"/></g><!--MD5=[7749219ac1e831685e68270a5e2f6472]
class DepartmentB--><g id="elem_DepartmentB"><rect codeLine="5" fill="#F1F1F1" height="48" id="DepartmentB" rx="2.5" ry="2.5" style="stroke:#181818;stroke-width:0.5;" width="132" x="174" y="152.2969"/><ellipse cx="189" cy="168.2969" fill="#ADD1B2" rx="11" ry="11" style="stroke:#181818;stroke-width:1.0;"/><path d="M191.3438,163.9688 C190.4063,163.5313 189.8125,163.3906 188.9375,163.3906 C186.3125,163.3906 184.3125,165.4688 184.3125,168.1875 L184.3125,169.3125 C184.3125,171.8906 186.4219,173.7813 189.3125,173.7813 C190.5313,173.7813 191.6875,173.4844 192.4375,172.9375 C193.0156,172.5313 193.3438,172.0781 193.3438,171.6875 C193.3438,171.2344 192.9531,170.8438 192.4844,170.8438 C192.2656,170.8438 192.0625,170.9219 191.875,171.1094 C191.4219,171.5938 191.4219,171.5938 191.2344,171.6875 C190.8125,171.9531 190.125,172.0781 189.3594,172.0781 C187.3125,172.0781 186.0156,170.9844 186.0156,169.2813 L186.0156,168.1875 C186.0156,166.4063 187.2656,165.0938 189,165.0938 C189.5781,165.0938 190.1875,165.25 190.6563,165.5 C191.1406,165.7813 191.3125,166 191.4063,166.4063 C191.4688,166.8125 191.5,166.9375 191.6406,167.0625 C191.7813,167.2031 192.0156,167.3125 192.2344,167.3125 C192.5,167.3125 192.7656,167.1719 192.9375,166.9531 C193.0469,166.7969 193.0781,166.6094 193.0781,166.1875 L193.0781,164.7656 C193.0781,164.3281 193.0625,164.2031 192.9688,164.0469 C192.8125,163.7813 192.5313,163.6406 192.2344,163.6406 C191.9375,163.6406 191.7344,163.7344 191.5156,164.0469 L191.3438,163.9688 Z " fill="#000000"/><text fill="#000000" font-family="sans-serif" font-size="14" lengthAdjust="spacing" textLength="100" x="203" y="173.1436">DepartmentB</text><line style="stroke:#181818;stroke-width:0.5;" x1="175" x2="305" y1="184.2969" y2="184.2969"/><line style="stroke:#181818;stroke-width:0.5;" x1="175" x2="305" y1="192.2969" y2="192.2969"/></g><!--MD5=[dc2f86661a1024f1d353c623e2bb1503]
reverse link Company to DepartmentA--><g id="link_Company_DepartmentA"><path codeLine="7" d="M129.734,102.8418 C117.214,118.8311 102.546,137.5635 91.2612,151.9753 " fill="none" id="Company-backto-DepartmentA" style="stroke:#181818;stroke-width:1.0;"/><polygon fill="#181818" points="137.99,92.2969,131.1416,94.5551,130.5921,101.7452,137.4405,99.487,137.99,92.2969" style="stroke:#181818;stroke-width:1.0;"/></g><!--MD5=[44081349b82fd56f090a9e17089579da]
reverse link Company to DepartmentB--><g id="link_Company_DepartmentB"><path codeLine="8" d="M182.583,102.8418 C195.254,118.8311 210.098,137.5635 221.519,151.9753 " fill="none" id="Company-backto-DepartmentB" style="stroke:#181818;stroke-width:1.0;"/><polygon fill="#181818" points="174.227,92.2969,174.8187,99.4837,181.6802,101.7016,181.0885,94.5148,174.227,92.2969" style="stroke:#181818;stroke-width:1.0;"/></g><!--MD5=[a07aa0c25a36d3093538cc047f52089e]
@startuml
title Composition

class Company
class DepartmentA
class DepartmentB

Company *- - DepartmentA
Company *- - DepartmentB
@enduml

PlantUML version 1.2022.7beta2(Unknown compile time)
(GPL source distribution)
Java Runtime: Java(TM) SE Runtime Environment
JVM: Java HotSpot(TM) 64-Bit Server VM
Default Encoding: UTF-8
Language: en
Country: US
--></g></svg>