<?xml version="1.0" encoding="UTF-8" standalone="no"?><svg xmlns="http://www.w3.org/2000/svg" xmlns:xlink="http://www.w3.org/1999/xlink" contentStyleType="text/css" height="207px" preserveAspectRatio="none" style="width:177px;height:207px;background:#FFFFFF;" version="1.1" viewBox="0 0 177 207" width="177px" zoomAndPan="magnify"><defs/><g><rect height="26.2969" id="_title" style="stroke:#00000000;stroke-width:1.0;fill:none;" width="129" x="17" y="5"/><text fill="#000000" font-family="sans-serif" font-size="14" font-weight="bold" lengthAdjust="spacing" textLength="119" x="22" y="22.9951">Generalization</text><!--MD5=[56c0e0bd38a0a951bd2161c4adb1031f]
class Vehical--><g id="elem_Vehical"><rect codeLine="3" fill="#F1F1F1" height="48" id="Vehical" rx="2.5" ry="2.5" style="stroke:#181818;stroke-width:0.5;" width="84" x="42" y="44.2969"/><ellipse cx="57" cy="60.2969" fill="#ADD1B2" rx="11" ry="11" style="stroke:#181818;stroke-width:1.0;"/><path d="M59.3438,55.9688 C58.4063,55.5313 57.8125,55.3906 56.9375,55.3906 C54.3125,55.3906 52.3125,57.4688 52.3125,60.1875 L52.3125,61.3125 C52.3125,63.8906 54.4219,65.7813 57.3125,65.7813 C58.5313,65.7813 59.6875,65.4844 60.4375,64.9375 C61.0156,64.5313 61.3438,64.0781 61.3438,63.6875 C61.3438,63.2344 60.9531,62.8438 60.4844,62.8438 C60.2656,62.8438 60.0625,62.9219 59.875,63.1094 C59.4219,63.5938 59.4219,63.5938 59.2344,63.6875 C58.8125,63.9531 58.125,64.0781 57.3594,64.0781 C55.3125,64.0781 54.0156,62.9844 54.0156,61.2813 L54.0156,60.1875 C54.0156,58.4063 55.2656,57.0938 57,57.0938 C57.5781,57.0938 58.1875,57.25 58.6563,57.5 C59.1406,57.7813 59.3125,58 59.4063,58.4063 C59.4688,58.8125 59.5,58.9375 59.6406,59.0625 C59.7813,59.2031 60.0156,59.3125 60.2344,59.3125 C60.5,59.3125 60.7656,59.1719 60.9375,58.9531 C61.0469,58.7969 61.0781,58.6094 61.0781,58.1875 L61.0781,56.7656 C61.0781,56.3281 61.0625,56.2031 60.9688,56.0469 C60.8125,55.7813 60.5313,55.6406 60.2344,55.6406 C59.9375,55.6406 59.7344,55.7344 59.5156,56.0469 L59.3438,55.9688 Z " fill="#000000"/><text fill="#000000" font-family="sans-serif" font-size="14" lengthAdjust="spacing" textLength="52" x="71" y="65.1436">Vehical</text><line style="stroke:#181818;stroke-width:0.5;" x1="43" x2="125" y1="76.2969" y2="76.2969"/><line style="stroke:#181818;stroke-width:0.5;" x1="43" x2="125" y1="84.2969" y2="84.2969"/></g><!--MD5=[3f0ef310aaa84a542276992c5216544d]
class Car--><g id="elem_Car"><rect codeLine="4" fill="#F1F1F1" height="48" id="Car" rx="2.5" ry="2.5" style="stroke:#181818;stroke-width:0.5;" width="56" x="7" y="152.2969"/><ellipse cx="22" cy="168.2969" fill="#ADD1B2" rx="11" ry="11" style="stroke:#181818;stroke-width:1.0;"/><path d="M24.3438,163.9688 C23.4063,163.5313 22.8125,163.3906 21.9375,163.3906 C19.3125,163.3906 17.3125,165.4688 17.3125,168.1875 L17.3125,169.3125 C17.3125,171.8906 19.4219,173.7813 22.3125,173.7813 C23.5313,173.7813 24.6875,173.4844 25.4375,172.9375 C26.0156,172.5313 26.3438,172.0781 26.3438,171.6875 C26.3438,171.2344 25.9531,170.8438 25.4844,170.8438 C25.2656,170.8438 25.0625,170.9219 24.875,171.1094 C24.4219,171.5938 24.4219,171.5938 24.2344,171.6875 C23.8125,171.9531 23.125,172.0781 22.3594,172.0781 C20.3125,172.0781 19.0156,170.9844 19.0156,169.2813 L19.0156,168.1875 C19.0156,166.4063 20.2656,165.0938 22,165.0938 C22.5781,165.0938 23.1875,165.25 23.6563,165.5 C24.1406,165.7813 24.3125,166 24.4063,166.4063 C24.4688,166.8125 24.5,166.9375 24.6406,167.0625 C24.7813,167.2031 25.0156,167.3125 25.2344,167.3125 C25.5,167.3125 25.7656,167.1719 25.9375,166.9531 C26.0469,166.7969 26.0781,166.6094 26.0781,166.1875 L26.0781,164.7656 C26.0781,164.3281 26.0625,164.2031 25.9688,164.0469 C25.8125,163.7813 25.5313,163.6406 25.2344,163.6406 C24.9375,163.6406 24.7344,163.7344 24.5156,164.0469 L24.3438,163.9688 Z " fill="#000000"/><text fill="#000000" font-family="sans-serif" font-size="14" lengthAdjust="spacing" textLength="24" x="36" y="173.1436">Car</text><line style="stroke:#181818;stroke-width:0.5;" x1="8" x2="62" y1="184.2969" y2="184.2969"/><line style="stroke:#181818;stroke-width:0.5;" x1="8" x2="62" y1="192.2969" y2="192.2969"/></g><!--MD5=[f2ba7f6ab60af8dd0d3e354f91729b14]
class Truck--><g id="elem_Truck"><rect codeLine="5" fill="#F1F1F1" height="48" id="Truck" rx="2.5" ry="2.5" style="stroke:#181818;stroke-width:0.5;" width="72" x="98" y="152.2969"/><ellipse cx="113" cy="168.2969" fill="#ADD1B2" rx="11" ry="11" style="stroke:#181818;stroke-width:1.0;"/><path d="M115.3438,163.9688 C114.4063,163.5313 113.8125,163.3906 112.9375,163.3906 C110.3125,163.3906 108.3125,165.4688 108.3125,168.1875 L108.3125,169.3125 C108.3125,171.8906 110.4219,173.7813 113.3125,173.7813 C114.5313,173.7813 115.6875,173.4844 116.4375,172.9375 C117.0156,172.5313 117.3438,172.0781 117.3438,171.6875 C117.3438,171.2344 116.9531,170.8438 116.4844,170.8438 C116.2656,170.8438 116.0625,170.9219 115.875,171.1094 C115.4219,171.5938 115.4219,171.5938 115.2344,171.6875 C114.8125,171.9531 114.125,172.0781 113.3594,172.0781 C111.3125,172.0781 110.0156,170.9844 110.0156,169.2813 L110.0156,168.1875 C110.0156,166.4063 111.2656,165.0938 113,165.0938 C113.5781,165.0938 114.1875,165.25 114.6563,165.5 C115.1406,165.7813 115.3125,166 115.4063,166.4063 C115.4688,166.8125 115.5,166.9375 115.6406,167.0625 C115.7813,167.2031 116.0156,167.3125 116.2344,167.3125 C116.5,167.3125 116.7656,167.1719 116.9375,166.9531 C117.0469,166.7969 117.0781,166.6094 117.0781,166.1875 L117.0781,164.7656 C117.0781,164.3281 117.0625,164.2031 116.9688,164.0469 C116.8125,163.7813 116.5313,163.6406 116.2344,163.6406 C115.9375,163.6406 115.7344,163.7344 115.5156,164.0469 L115.3438,163.9688 Z " fill="#000000"/><text fill="#000000" font-family="sans-serif" font-size="14" lengthAdjust="spacing" textLength="40" x="127" y="173.1436">Truck</text><line style="stroke:#181818;stroke-width:0.5;" x1="99" x2="169" y1="184.2969" y2="184.2969"/><line style="stroke:#181818;stroke-width:0.5;" x1="99" x2="169" y1="192.2969" y2="192.2969"/></g><!--MD5=[3b8cfe3ad419621434a8731c8a882034]
reverse link Vehical to Car--><g id="link_Vehical_Car"><path codeLine="7" d="M64.7814,110.8717 C58.3246,124.8397 51.3538,139.9193 45.7807,151.9753 " fill="none" id="Vehical-backto-Car" style="stroke:#181818;stroke-width:1.0;"/><polygon fill="none" points="58.6217,107.5143,73.3677,92.2969,71.3296,113.3887,58.6217,107.5143" style="stroke:#181818;stroke-width:1.0;"/></g><!--MD5=[e50d30ea897902297c8490088fad47c8]
reverse link Vehical to Truck--><g id="link_Vehical_Truck"><path codeLine="8" d="M103.3838,110.3905 C110.036,124.4927 117.247,139.7807 122.999,151.9753 " fill="none" id="Vehical-backto-Truck" style="stroke:#181818;stroke-width:1.0;"/><polygon fill="none" points="97.0507,113.3723,94.8493,92.2969,109.713,107.3996,97.0507,113.3723" style="stroke:#181818;stroke-width:1.0;"/></g><!--MD5=[3f76226a215fd28b325163de094add9e]
@startuml
title Generalization

class Vehical
class Car
class Truck

Vehical <|- - Car
Vehical <|- - Truck
@enduml

PlantUML version 1.2022.7beta2(Unknown compile time)
(GPL source distribution)
Java Runtime: Java(TM) SE Runtime Environment
JVM: Java HotSpot(TM) 64-Bit Server VM
Default Encoding: UTF-8
Language: en
Country: US
--></g></svg>