<?xml version="1.0" encoding="UTF-8" standalone="no"?><svg xmlns="http://www.w3.org/2000/svg" xmlns:xlink="http://www.w3.org/1999/xlink" contentStyleType="text/css" height="207px" preserveAspectRatio="none" style="width:160px;height:207px;background:#FFFFFF;" version="1.1" viewBox="0 0 160 207" width="160px" zoomAndPan="magnify"><defs/><g><rect height="26.2969" id="_title" style="stroke:#00000000;stroke-width:1.0;fill:none;" width="102" x="22.25" y="5"/><text fill="#000000" font-family="sans-serif" font-size="14" font-weight="bold" lengthAdjust="spacing" textLength="92" x="27.25" y="22.9951">Realization</text><!--MD5=[d05f3d9fc6108d338bb0c73bde67e857]
class MoveBehavior--><g id="elem_MoveBehavior"><rect codeLine="3" fill="#F1F1F1" height="48" id="MoveBehavior" rx="2.5" ry="2.5" style="stroke:#181818;stroke-width:0.5;" width="134" x="11" y="44.2969"/><ellipse cx="26" cy="60.2969" fill="#B4A7E5" rx="11" ry="11" style="stroke:#181818;stroke-width:1.0;"/><path d="M26.9531,57.0781 L28.6719,57.0781 C29.0625,57.0781 29.25,57.0469 29.375,56.9688 C29.6406,56.8125 29.7813,56.5313 29.7813,56.2344 C29.7813,55.9688 29.6719,55.7031 29.4375,55.5313 C29.2656,55.4219 29.125,55.3906 28.6719,55.3906 L23.5313,55.3906 C23.0938,55.3906 22.9688,55.4063 22.8125,55.5 C22.5625,55.6563 22.4063,55.9531 22.4063,56.2344 C22.4063,56.5156 22.5469,56.7656 22.7656,56.9375 C22.9219,57.0469 23.1094,57.0781 23.5313,57.0781 L25.25,57.0781 L25.25,63.5938 L23.5313,63.5938 C23.0938,63.5938 22.9688,63.6094 22.8125,63.7188 C22.5625,63.875 22.4063,64.1563 22.4063,64.4531 C22.4063,64.7031 22.5469,64.9688 22.7656,65.125 C22.9219,65.25 23.125,65.2969 23.5313,65.2969 L28.6719,65.2969 C29.4219,65.2969 29.7813,65.0156 29.7813,64.4531 C29.7813,64.1719 29.6719,63.9219 29.4375,63.75 C29.2656,63.625 29.125,63.5938 28.6719,63.5938 L26.9531,63.5938 L26.9531,57.0781 Z " fill="#000000"/><text fill="#000000" font-family="sans-serif" font-size="14" font-style="italic" lengthAdjust="spacing" textLength="102" x="40" y="65.1436">MoveBehavior</text><line style="stroke:#181818;stroke-width:0.5;" x1="12" x2="144" y1="76.2969" y2="76.2969"/><line style="stroke:#181818;stroke-width:0.5;" x1="12" x2="144" y1="84.2969" y2="84.2969"/></g><!--MD5=[1a1605ffcef34ba6fa1ddf70dec00566]
class Fly--><g id="elem_Fly"><rect codeLine="4" fill="#F1F1F1" height="48" id="Fly" rx="2.5" ry="2.5" style="stroke:#181818;stroke-width:0.5;" width="52" x="7" y="152.2969"/><ellipse cx="22" cy="168.2969" fill="#ADD1B2" rx="11" ry="11" style="stroke:#181818;stroke-width:1.0;"/><path d="M24.3438,163.9688 C23.4063,163.5313 22.8125,163.3906 21.9375,163.3906 C19.3125,163.3906 17.3125,165.4688 17.3125,168.1875 L17.3125,169.3125 C17.3125,171.8906 19.4219,173.7813 22.3125,173.7813 C23.5313,173.7813 24.6875,173.4844 25.4375,172.9375 C26.0156,172.5313 26.3438,172.0781 26.3438,171.6875 C26.3438,171.2344 25.9531,170.8438 25.4844,170.8438 C25.2656,170.8438 25.0625,170.9219 24.875,171.1094 C24.4219,171.5938 24.4219,171.5938 24.2344,171.6875 C23.8125,171.9531 23.125,172.0781 22.3594,172.0781 C20.3125,172.0781 19.0156,170.9844 19.0156,169.2813 L19.0156,168.1875 C19.0156,166.4063 20.2656,165.0938 22,165.0938 C22.5781,165.0938 23.1875,165.25 23.6563,165.5 C24.1406,165.7813 24.3125,166 24.4063,166.4063 C24.4688,166.8125 24.5,166.9375 24.6406,167.0625 C24.7813,167.2031 25.0156,167.3125 25.2344,167.3125 C25.5,167.3125 25.7656,167.1719 25.9375,166.9531 C26.0469,166.7969 26.0781,166.6094 26.0781,166.1875 L26.0781,164.7656 C26.0781,164.3281 26.0625,164.2031 25.9688,164.0469 C25.8125,163.7813 25.5313,163.6406 25.2344,163.6406 C24.9375,163.6406 24.7344,163.7344 24.5156,164.0469 L24.3438,163.9688 Z " fill="#000000"/><text fill="#000000" font-family="sans-serif" font-size="14" lengthAdjust="spacing" textLength="20" x="36" y="173.1436">Fly</text><line style="stroke:#181818;stroke-width:0.5;" x1="8" x2="58" y1="184.2969" y2="184.2969"/><line style="stroke:#181818;stroke-width:0.5;" x1="8" x2="58" y1="192.2969" y2="192.2969"/></g><!--MD5=[8c2f4329bae024304d629f7fadea7029]
class Run--><g id="elem_Run"><rect codeLine="5" fill="#F1F1F1" height="48" id="Run" rx="2.5" ry="2.5" style="stroke:#181818;stroke-width:0.5;" width="59" x="94.5" y="152.2969"/><ellipse cx="109.5" cy="168.2969" fill="#ADD1B2" rx="11" ry="11" style="stroke:#181818;stroke-width:1.0;"/><path d="M111.8438,163.9688 C110.9063,163.5313 110.3125,163.3906 109.4375,163.3906 C106.8125,163.3906 104.8125,165.4688 104.8125,168.1875 L104.8125,169.3125 C104.8125,171.8906 106.9219,173.7813 109.8125,173.7813 C111.0313,173.7813 112.1875,173.4844 112.9375,172.9375 C113.5156,172.5313 113.8438,172.0781 113.8438,171.6875 C113.8438,171.2344 113.4531,170.8438 112.9844,170.8438 C112.7656,170.8438 112.5625,170.9219 112.375,171.1094 C111.9219,171.5938 111.9219,171.5938 111.7344,171.6875 C111.3125,171.9531 110.625,172.0781 109.8594,172.0781 C107.8125,172.0781 106.5156,170.9844 106.5156,169.2813 L106.5156,168.1875 C106.5156,166.4063 107.7656,165.0938 109.5,165.0938 C110.0781,165.0938 110.6875,165.25 111.1563,165.5 C111.6406,165.7813 111.8125,166 111.9063,166.4063 C111.9688,166.8125 112,166.9375 112.1406,167.0625 C112.2813,167.2031 112.5156,167.3125 112.7344,167.3125 C113,167.3125 113.2656,167.1719 113.4375,166.9531 C113.5469,166.7969 113.5781,166.6094 113.5781,166.1875 L113.5781,164.7656 C113.5781,164.3281 113.5625,164.2031 113.4688,164.0469 C113.3125,163.7813 113.0313,163.6406 112.7344,163.6406 C112.4375,163.6406 112.2344,163.7344 112.0156,164.0469 L111.8438,163.9688 Z " fill="#000000"/><text fill="#000000" font-family="sans-serif" font-size="14" lengthAdjust="spacing" textLength="27" x="123.5" y="173.1436">Run</text><line style="stroke:#181818;stroke-width:0.5;" x1="95.5" x2="152.5" y1="184.2969" y2="184.2969"/><line style="stroke:#181818;stroke-width:0.5;" x1="95.5" x2="152.5" y1="192.2969" y2="192.2969"/></g><!--MD5=[de95e0b69bced9010308b2c269945c0b]
reverse link MoveBehavior to Fly--><g id="link_MoveBehavior_Fly"><path codeLine="7" d="M60.3503,110.8717 C54.4205,124.8397 48.0188,139.9193 42.9007,151.9753 " fill="none" id="MoveBehavior-backto-Fly" style="stroke:#181818;stroke-width:1.0;stroke-dasharray:7.0,7.0;"/><polygon fill="none" points="53.9767,107.9716,68.2357,92.2969,66.8636,113.4425,53.9767,107.9716" style="stroke:#181818;stroke-width:1.0;"/></g><!--MD5=[5d1bae862d18aec2f25f412c36adccb5]
reverse link MoveBehavior to Run--><g id="link_MoveBehavior_Run"><path codeLine="8" d="M96.0419,110.8717 C102.1035,124.8397 108.647,139.9193 113.879,151.9753 " fill="none" id="MoveBehavior-backto-Run" style="stroke:#181818;stroke-width:1.0;stroke-dasharray:7.0,7.0;"/><polygon fill="none" points="89.5218,113.4309,87.9813,92.2969,102.3647,107.8576,89.5218,113.4309" style="stroke:#181818;stroke-width:1.0;"/></g><!--MD5=[9a1abfa1c249674c3ceded0f2eba1af3]
@startuml
title Realization

interface MoveBehavior
class Fly
class Run

MoveBehavior <|.. Fly
MoveBehavior <|.. Run
@enduml

PlantUML version 1.2022.7beta2(Unknown compile time)
(GPL source distribution)
Java Runtime: Java(TM) SE Runtime Environment
JVM: Java HotSpot(TM) 64-Bit Server VM
Default Encoding: UTF-8
Language: en
Country: US
--></g></svg>