<?xml version="1.0" encoding="UTF-8" standalone="no"?><svg xmlns="http://www.w3.org/2000/svg" xmlns:xlink="http://www.w3.org/1999/xlink" contentStyleType="text/css" height="99px" preserveAspectRatio="none" style="width:219px;height:99px;background:#FFFFFF;" version="1.1" viewBox="0 0 219 99" width="219px" zoomAndPan="magnify"><defs/><g><rect height="26.2969" id="_title" style="stroke:#00000000;stroke-width:1.0;fill:none;" width="106" x="49.5" y="5"/><text fill="#000000" font-family="sans-serif" font-size="14" font-weight="bold" lengthAdjust="spacing" textLength="96" x="54.5" y="22.9951">Association</text><!--MD5=[10a9fff9df9a76a22f65fd5d58adb785]
class School--><g id="elem_School"><rect codeLine="3" fill="#F1F1F1" height="48" id="School" rx="2.5" ry="2.5" style="stroke:#181818;stroke-width:0.5;" width="80" x="7" y="44.2969"/><ellipse cx="22" cy="60.2969" fill="#ADD1B2" rx="11" ry="11" style="stroke:#181818;stroke-width:1.0;"/><path d="M24.3438,55.9688 C23.4063,55.5313 22.8125,55.3906 21.9375,55.3906 C19.3125,55.3906 17.3125,57.4688 17.3125,60.1875 L17.3125,61.3125 C17.3125,63.8906 19.4219,65.7813 22.3125,65.7813 C23.5313,65.7813 24.6875,65.4844 25.4375,64.9375 C26.0156,64.5313 26.3438,64.0781 26.3438,63.6875 C26.3438,63.2344 25.9531,62.8438 25.4844,62.8438 C25.2656,62.8438 25.0625,62.9219 24.875,63.1094 C24.4219,63.5938 24.4219,63.5938 24.2344,63.6875 C23.8125,63.9531 23.125,64.0781 22.3594,64.0781 C20.3125,64.0781 19.0156,62.9844 19.0156,61.2813 L19.0156,60.1875 C19.0156,58.4063 20.2656,57.0938 22,57.0938 C22.5781,57.0938 23.1875,57.25 23.6563,57.5 C24.1406,57.7813 24.3125,58 24.4063,58.4063 C24.4688,58.8125 24.5,58.9375 24.6406,59.0625 C24.7813,59.2031 25.0156,59.3125 25.2344,59.3125 C25.5,59.3125 25.7656,59.1719 25.9375,58.9531 C26.0469,58.7969 26.0781,58.6094 26.0781,58.1875 L26.0781,56.7656 C26.0781,56.3281 26.0625,56.2031 25.9688,56.0469 C25.8125,55.7813 25.5313,55.6406 25.2344,55.6406 C24.9375,55.6406 24.7344,55.7344 24.5156,56.0469 L24.3438,55.9688 Z " fill="#000000"/><text fill="#000000" font-family="sans-serif" font-size="14" lengthAdjust="spacing" textLength="48" x="36" y="65.1436">School</text><line style="stroke:#181818;stroke-width:0.5;" x1="8" x2="86" y1="76.2969" y2="76.2969"/><line style="stroke:#181818;stroke-width:0.5;" x1="8" x2="86" y1="84.2969" y2="84.2969"/></g><!--MD5=[d6181cb537bdc20c0a3007a98a56832d]
class Student--><g id="elem_Student"><rect codeLine="4" fill="#F1F1F1" height="48" id="Student" rx="2.5" ry="2.5" style="stroke:#181818;stroke-width:0.5;" width="90" x="122" y="44.2969"/><ellipse cx="137" cy="60.2969" fill="#ADD1B2" rx="11" ry="11" style="stroke:#181818;stroke-width:1.0;"/><path d="M139.3438,55.9688 C138.4063,55.5313 137.8125,55.3906 136.9375,55.3906 C134.3125,55.3906 132.3125,57.4688 132.3125,60.1875 L132.3125,61.3125 C132.3125,63.8906 134.4219,65.7813 137.3125,65.7813 C138.5313,65.7813 139.6875,65.4844 140.4375,64.9375 C141.0156,64.5313 141.3438,64.0781 141.3438,63.6875 C141.3438,63.2344 140.9531,62.8438 140.4844,62.8438 C140.2656,62.8438 140.0625,62.9219 139.875,63.1094 C139.4219,63.5938 139.4219,63.5938 139.2344,63.6875 C138.8125,63.9531 138.125,64.0781 137.3594,64.0781 C135.3125,64.0781 134.0156,62.9844 134.0156,61.2813 L134.0156,60.1875 C134.0156,58.4063 135.2656,57.0938 137,57.0938 C137.5781,57.0938 138.1875,57.25 138.6563,57.5 C139.1406,57.7813 139.3125,58 139.4063,58.4063 C139.4688,58.8125 139.5,58.9375 139.6406,59.0625 C139.7813,59.2031 140.0156,59.3125 140.2344,59.3125 C140.5,59.3125 140.7656,59.1719 140.9375,58.9531 C141.0469,58.7969 141.0781,58.6094 141.0781,58.1875 L141.0781,56.7656 C141.0781,56.3281 141.0625,56.2031 140.9688,56.0469 C140.8125,55.7813 140.5313,55.6406 140.2344,55.6406 C139.9375,55.6406 139.7344,55.7344 139.5156,56.0469 L139.3438,55.9688 Z " fill="#000000"/><text fill="#000000" font-family="sans-serif" font-size="14" lengthAdjust="spacing" textLength="58" x="151" y="65.1436">Student</text><line style="stroke:#181818;stroke-width:0.5;" x1="123" x2="211" y1="76.2969" y2="76.2969"/><line style="stroke:#181818;stroke-width:0.5;" x1="123" x2="211" y1="84.2969" y2="84.2969"/></g><!--MD5=[bb1b348fe46af82213473b084a6c1e59]
link School to Student--><g id="link_School_Student"><path codeLine="6" d="M87.3125,68.2969 C98.8298,68.2969 110.347,68.2969 121.865,68.2969 " fill="none" id="School-Student" style="stroke:#181818;stroke-width:1.0;"/><text fill="#000000" font-family="sans-serif" font-size="13" lengthAdjust="spacing" textLength="8" x="94.9287" y="64.0861">1</text><text fill="#000000" font-family="sans-serif" font-size="13" lengthAdjust="spacing" textLength="8" x="106.0341" y="64.179">n</text></g><!--MD5=[32788ed142e30908e3f91eded3ec7620]
@startuml
title Association

class School
class Student

School "1" - "n" Student
@enduml

PlantUML version 1.2022.7beta2(Unknown compile time)
(GPL source distribution)
Java Runtime: Java(TM) SE Runtime Environment
JVM: Java HotSpot(TM) 64-Bit Server VM
Default Encoding: UTF-8
Language: en
Country: US
--></g></svg>